<svg width="16" height="16" viewBox="0 0 16 16" fill="none" xmlns="http://www.w3.org/2000/svg">
<path d="M8 0L8.39885 4.97041L10.0706 0.272593L9.16938 5.17688L12 1.0718L9.86021 5.57573L13.6569 2.34315L10.4243 6.13979L14.9282 4L10.8231 6.83062L15.7274 5.92945L11.0296 7.60115L16 8L11.0296 8.39885L15.7274 10.0706L10.8231 9.16938L14.9282 12L10.4243 9.86021L13.6569 13.6569L9.86021 10.4243L12 14.9282L9.16938 10.8231L10.0706 15.7274L8.39885 11.0296L8 16L7.60115 11.0296L5.92945 15.7274L6.83062 10.8231L4 14.9282L6.13979 10.4243L2.34315 13.6569L5.57573 9.86021L1.0718 12L5.17688 9.16938L0.272593 10.0706L4.97041 8.39885L0 8L4.97041 7.60115L0.272593 5.92945L5.17688 6.83062L1.0718 4L5.57573 6.13979L2.34315 2.34315L6.13979 5.57573L4 1.0718L6.83062 5.17688L5.92945 0.272593L7.60115 4.97041L8 0Z" fill="#264BEB"/>
</svg>
