<svg width="24" height="24" viewBox="0 0 24 24" fill="none" xmlns="http://www.w3.org/2000/svg">
<path d="M12.0996 7.49609L13.0693 7.62305L13.4883 6.44434L13.2627 7.6748L14.166 8.04883L14.875 7.01953L14.3389 8.14941L15.1143 8.74414L16.0664 7.93262L15.2559 8.88574L15.8506 9.66113L16.9795 9.12402L15.9512 9.83398L16.3252 10.7373L17.5547 10.5107L16.377 10.9307L16.5039 11.9004L17.7461 12L16.5039 12.0996L16.377 13.0693L17.5547 13.4883L16.3252 13.2627L15.9512 14.166L16.9795 14.875L15.8506 14.3389L15.2559 15.1143L16.0664 16.0664L15.1143 15.2559L14.3389 15.8506L14.875 16.9795L14.166 15.9512L13.2627 16.3252L13.4883 17.5547L13.0693 16.377L12.0996 16.5039L12 17.7461L11.9004 16.5039L10.9307 16.377L10.5107 17.5547L10.7373 16.3252L9.83398 15.9512L9.12402 16.9795L9.66113 15.8506L8.88574 15.2559L7.93262 16.0664L8.74414 15.1143L8.14941 14.3389L7.01953 14.875L8.04883 14.166L7.6748 13.2627L6.44434 13.4883L7.62305 13.0693L7.49609 12.0996L6.25293 12L7.49609 11.9004L7.62305 10.9307L6.44434 10.5107L7.6748 10.7373L8.04883 9.83398L7.01953 9.12402L8.14941 9.66113L8.74414 8.88574L7.93262 7.93262L8.88574 8.74414L9.66113 8.14941L9.12402 7.01953L9.83398 8.04883L10.7373 7.6748L10.5107 6.44434L10.9307 7.62305L11.9004 7.49609L12 6.25293L12.0996 7.49609Z" fill="#F1F1F0" stroke="#0B0B0B"/>
</svg>
