<svg width="32" height="32" viewBox="0 0 32 32" fill="none" xmlns="http://www.w3.org/2000/svg">
<path fill-rule="evenodd" clip-rule="evenodd" d="M18.7003 9.36678C18.7003 9.36679 18.7003 9.3668 18.7002 9.36682L16.943 11.1242C16.693 11.3743 16.3538 11.5148 16.0002 11.5148C15.6465 11.5148 15.3074 11.3743 15.0573 11.1242L13.2999 9.36681C11.4775 7.54437 8.5227 7.54437 6.70025 9.36681C4.8778 11.1893 4.8778 14.144 6.70025 15.9665L16.0001 25.2664L25.2999 15.9665L26.2427 16.9093L25.2999 15.9665C27.1224 14.144 27.1224 11.1893 25.2999 9.36681C23.4775 7.54438 20.5227 7.54437 18.7003 9.36678ZM16.8146 7.4812C19.6785 4.61735 24.3217 4.61735 27.1855 7.4812C30.0494 10.345 30.0494 14.9882 27.1855 17.8521L16.943 28.0948C16.6929 28.3449 16.3538 28.4853 16.0002 28.4853C15.6465 28.4853 15.3074 28.3449 15.0573 28.0948L4.81463 17.8521C1.95079 14.9883 1.95079 10.345 4.81463 7.4812C7.67848 4.61735 12.3217 4.61735 15.1855 7.4812L16.0001 8.29578L16.8146 7.48124L16.8146 7.4812Z" fill="#111827"/>
</svg>
