<svg width="32" height="32" viewBox="0 0 32 32" fill="none" xmlns="http://www.w3.org/2000/svg">
<path fill-rule="evenodd" clip-rule="evenodd" d="M22.5997 8.06702C18.9548 4.42213 13.0452 4.42213 9.40034 8.06702C5.75544 11.7119 5.75544 17.6215 9.40034 21.2663L15.0583 26.9243C15.5786 27.4447 16.4212 27.4448 16.9423 26.9238L22.5997 21.2663C26.2446 17.6215 26.2446 11.7119 22.5997 8.06702ZM7.51472 6.18141C12.201 1.49511 19.799 1.49511 24.4853 6.18141C29.1716 10.8677 29.1716 18.4657 24.4853 23.152L19.8156 27.8217C19.7737 27.8635 19.8339 27.8034 19.792 27.8452L18.8279 28.8094C17.2661 30.3711 14.7352 30.3724 13.1727 28.8099L7.51472 23.152C2.82843 18.4657 2.82843 10.8677 7.51472 6.18141ZM16 12C14.5272 12 13.3333 13.1939 13.3333 14.6667C13.3333 16.1394 14.5272 17.3334 16 17.3334C17.4728 17.3334 18.6667 16.1394 18.6667 14.6667C18.6667 13.1939 17.4728 12 16 12ZM10.6667 14.6667C10.6667 11.7212 13.0545 9.33335 16 9.33335C18.9455 9.33335 21.3333 11.7212 21.3333 14.6667C21.3333 17.6122 18.9455 20 16 20C13.0545 20 10.6667 17.6122 10.6667 14.6667Z" fill="#111827"/>
</svg>
