<svg width="32" height="32" viewBox="0 0 32 32" fill="none" xmlns="http://www.w3.org/2000/svg">
<path fill-rule="evenodd" clip-rule="evenodd" d="M15.9999 5.33335C13.7908 5.33335 11.9999 7.12422 11.9999 9.33335C11.9999 11.5425 13.7908 13.3334 15.9999 13.3334C18.2091 13.3334 19.9999 11.5425 19.9999 9.33335C19.9999 7.12421 18.2091 5.33335 15.9999 5.33335ZM9.33325 9.33335C9.33325 5.65145 12.318 2.66669 15.9999 2.66669C19.6818 2.66669 22.6666 5.65146 22.6666 9.33335C22.6666 13.0153 19.6818 16 15.9999 16C12.318 16 9.33325 13.0153 9.33325 9.33335ZM8.11053 26.6667H23.8893C23.2545 22.8831 19.9639 20 15.9999 20C12.0359 20 8.7453 22.8831 8.11053 26.6667ZM5.33325 28C5.33325 22.109 10.1089 17.3334 15.9999 17.3334C21.891 17.3334 26.6666 22.109 26.6666 28C26.6666 28.7364 26.0696 29.3334 25.3333 29.3334H6.66659C5.93021 29.3334 5.33325 28.7364 5.33325 28Z" fill="#0B0B0B"/>
</svg>
